<svg width="58" height="30" viewBox="0 0 58 30" fill="none" xmlns="http://www.w3.org/2000/svg">
<path d="M30.3281 28.4536C30.3281 27.7036 30.125 27.2973 29.7188 27.2348C29.5625 27.2036 29.3906 27.1879 29.2031 27.1879H27.7969L16.7344 0.328552H13.2656L3 27.1879H0V28.4536H8.625C8.625 27.7036 8.42188 27.2973 8.01562 27.2348C7.85938 27.2036 7.6875 27.1879 7.5 27.1879H4.875L8.25 18.1879H17.5781L21.0938 27.1879H17.7656V28.4536H30.3281ZM17.0156 16.7817H8.8125L12.8438 6.00043L17.0156 16.7817Z" fill="#FAFC6D"/>
<path d="M49.1719 1.59418V0.328552H34.875V1.59418H39.0938V19.4067C39.0938 24.0004 38.7031 26.7348 37.9219 27.6098C37.5469 27.9848 37.1094 28.1723 36.6094 28.1723C35.7969 28.1723 35.2656 27.6723 35.0156 26.6723C34.9844 26.4848 34.9375 26.2036 34.875 25.8286C34.6562 24.3598 34.2344 23.4067 33.6094 22.9692C33.1094 22.6567 32.4688 22.5004 31.6875 22.5004C30.4688 22.5004 29.6719 23.0473 29.2969 24.1411C29.2031 24.4536 29.1562 24.7661 29.1562 25.0786C29.1562 26.5161 29.9688 27.6411 31.5938 28.4536C32.8125 29.0786 34.3125 29.3911 36.0938 29.3911C40.3125 29.3911 43.1562 27.7817 44.625 24.5629C45.3125 23.0317 45.6562 21.2192 45.6562 19.1254V1.59418H49.1719Z" fill="#FAFC6D"/>
<path d="M57.6562 25.4067C57.6562 24.0942 57.0625 23.1098 55.875 22.4536C55.375 22.2036 54.8594 22.0786 54.3281 22.0786C53.0156 22.0786 52.0469 22.6723 51.4219 23.8598C51.1719 24.3598 51.0469 24.8754 51.0469 25.4067C51.0469 26.7504 51.6406 27.7192 52.8281 28.3129C53.2969 28.5629 53.7969 28.6879 54.3281 28.6879C55.6719 28.6879 56.6562 28.1254 57.2812 27.0004C57.5312 26.5004 57.6562 25.9692 57.6562 25.4067Z" fill="#FAFC6D"/>
</svg>
