<svg width="51" height="30" viewBox="0 0 51 30" fill="none" xmlns="http://www.w3.org/2000/svg">
<path d="M31.2772 28.4783C31.2772 27.7283 31.0741 27.3221 30.6678 27.2596C30.5116 27.2283 30.3397 27.2127 30.1522 27.2127H28.7459L17.6834 0.353333H14.2147L3.94907 27.2127H0.949066V28.4783H9.57407C9.57407 27.7283 9.37094 27.3221 8.96469 27.2596C8.80844 27.2283 8.63657 27.2127 8.44907 27.2127H5.82407L9.19907 18.2127H18.5272L22.0428 27.2127H18.7147V28.4783H31.2772ZM17.9647 16.8065H9.76157L13.7928 6.02521L17.9647 16.8065Z" fill="#FAFC6D"/>
<path d="M50.1209 1.61896V0.353333H35.8241V1.61896H40.0428V19.4315C40.0428 24.0252 39.6522 26.7596 38.8709 27.6346C38.4959 28.0096 38.0584 28.1971 37.5584 28.1971C36.7459 28.1971 36.2147 27.6971 35.9647 26.6971C35.9334 26.5096 35.8866 26.2283 35.8241 25.8533C35.6053 24.3846 35.1834 23.4315 34.5584 22.994C34.0584 22.6815 33.4178 22.5252 32.6366 22.5252C31.4178 22.5252 30.6209 23.0721 30.2459 24.1658C30.1522 24.4783 30.1053 24.7908 30.1053 25.1033C30.1053 26.5408 30.9178 27.6658 32.5428 28.4783C33.7616 29.1033 35.2616 29.4158 37.0428 29.4158C41.2616 29.4158 44.1053 27.8065 45.5741 24.5877C46.2616 23.0565 46.6053 21.244 46.6053 19.1502V1.61896H50.1209Z" fill="#FAFC6D"/>
</svg>
